#!OML:ASF C:\ViconDB\ViconDB\414\Spring2016\041811\Spring2016.ASF
:FULLY-SPECIFIED
:DEGREES
330
root 10.5694 18.6468 -9.93417 535.562 -57.1628 183.302
lowerback 4.34809 1.42195 -9.94294
upperback -0.0143625 1.19426 -2.58888
thorax -2.62177 0.650188 2.79679
lowerneck -16.7498 -5.84345 -18.9052
upperneck 18.4584 -9.92598 25.8754
head 11.2061 -3.80662 11.6611
rclavicle -6.78353e-015 3.33958e-014
rhumerus -32.2852 -28.8871 2.20474
rradius 27.2165
rwrist 43.7984
rhand -27.3024 -12.8467
rfingers 7.12502
rthumb -0.712136 -42.8253
lclavicle -6.78353e-015 3.33958e-014
lhumerus -32.0898 -12.1563 1.97239
lradius 21.0984
lwrist -4.62775
lhand -26.7237 23.6832
lfingers 7.12502
lthumb -0.153272 53.6628
rfemur -41.6298 -205.335 4.27377
rtibia 39.0784
rfoot 17.9353 -53.8501
rtoes -9.47704
lfemur -19.2678 5.81955 -5.30593
ltibia 47.2976
lfoot -5.80131 13.2329
ltoes -15.4824
331
root 10.6654 18.6635 -9.93524 536.824 -53.4758 181.442
lowerback 4.87999 1.59096 -10.1353
upperback -0.0185681 1.31677 -2.73124
thorax -2.94418 0.718514 2.73401
lowerneck -17.0496 -5.46914 -18.8927
upperneck 18.8173 -9.36508 25.7183
head 11.22 -3.54238 11.7167
rclavicle 7.65321e-014 9.54166e-015
rhumerus -32.7005 -29.7825 3.34614
rradius 26.7007
rwrist 45.4317
rhand -28.1365 -12.0528
rfingers 7.12502
rthumb -1.51779 -42.0272
lclavicle 7.65321e-014 9.54166e-015
lhumerus -32.5745 -12.6773 1.49703
lradius 20.9305
lwrist -4.46543
lhand -26.4616 23.4849
lfingers 7.12502
lthumb 0.0998927 53.4646
rfemur -41.0209 -203.843 3.90014
rtibia 39.6226
rfoot 19.3521 -52.7973
rtoes -7.85205
lfemur -17.5326 4.08448 -4.95443
ltibia 46.4914
lfoot -4.23761 9.81511
ltoes -14.7596
332
root 10.7483 18.6756 -9.93686 537.833 -49.9033 179.996
lowerback 4.90444 1.6618 -10.2663
upperback 0.216549 1.39857 -2.84755
thorax -2.7229 0.735905 2.68199
lowerneck -17.6599 -5.11051 -18.6592
upperneck 19.0329 -8.7464 25.3961
head 11.209 -3.22043 11.6479
rclavicle 5.89894e-014 -6.36111e-015
rhumerus -32.8847 -29.3674 3.51621
rradius 26.913
rwrist 44.4343
rhand -27.6399 -12.9668
rfingers 7.12502
rthumb -1.03809 -42.944
lclavicle 5.89894e-014 -6.36111e-015
lhumerus -32.9589 -12.8124 1.1033
lradius 20.8895
lwrist -3.84974
lhand -26.2182 23.9501
lfingers 7.12502
lthumb 0.334997 53.9296
rfemur -40.2076 -202.296 3.52222
rtibia 39.9504
rfoot 19.5433 -51.7238
rtoes -7.93194
lfemur -15.8576 2.01538 -4.70827
ltibia 45.5665
lfoot -3.25961 7.4799
ltoes -11.8306
333
root 10.8268 18.6802 -9.93491 538.615 -46.2979 178.798
lowerback 5.07235 1.77706 -10.4039
upperback 0.34041 1.51065 -2.95214
thorax -2.70356 0.780112 2.63784
lowerneck -18.1429 -4.64761 -18.1654
upperneck 19.184 -8.04493 24.9915
head 11.1118 -2.85565 11.4911
rclavicle 6.51765e-014 1.59028e-014
rhumerus -33.3751 -28.9478 3.83574
rradius 27.2629
rwrist 43.5879
rhand -27.3195 -13.4459
rfingers 7.12502
rthumb -0.728677 -43.4244
lclavicle 6.51765e-014 1.59028e-014
lhumerus -33.2964 -12.7317 0.554519
lradius 20.8539
lwrist -3.9472
lhand -26.0811 24.1421
lfingers 7.12502
lthumb 0.467397 54.1213
rfemur -39.2791 -200.864 3.05809
rtibia 40.1681
rfoot 18.9166 -50.9724
rtoes -5.45498
lfemur -14.1084 -0.178718 -4.62327
ltibia 44.5071
lfoot -3.03661 7.12793
ltoes -8.7057
334
root 10.9014 18.6865 -9.93207 539.238 -42.8041 177.863
lowerback 5.19232 1.85109 -10.493
upperback 0.447398 1.57732 -3.04136
thorax -2.66823 0.801637 2.58739
lowerneck -18.3866 -4.31256 -17.715
upperneck 19.1596 -7.44366 24.339
head 10.9247 -2.56865 11.1941
rclavicle 2.70844e-014 2.22639e-014
rhumerus -33.7226 -28.339 4.01924
rradius 27.3956
rwrist 42.7028
rhand -27.7912 -13.9766
rfingers 7.12502
rthumb -1.18423 -43.9531
lclavicle 2.70844e-014 2.22639e-014
lhumerus -33.452 -12.3117 -0.00405654
lradius 20.575
lwrist -4.52049
lhand -26.3051 24.3392
lfingers 7.12502
lthumb 0.251036 54.3188
rfemur -38.2338 -199.715 2.58744
rtibia 40.2716
rfoot 17.0815 -50.7849
rtoes -3.93089
lfemur -12.4313 -2.46695 -4.60843
ltibia 43.3733
lfoot -3.60356 8.50958
ltoes -5.37758
335
root 10.9712 18.6875 -9.91976 540.007 -39.6635 176.9
lowerback 5.39041 1.86845 -10.7212
upperback 0.468892 1.5434 -3.10355
thorax -2.75907 0.783486 2.64612
lowerneck -18.6269 -4.05694 -17.1381
upperneck 19.1347 -6.96467 23.5394
head 10.7674 -2.34207 10.7928
rclavicle 1.80397e-014 -3.81667e-014
rhumerus -34.3649 -28.2947 4.6719
rradius 27.3855
rwrist 42.8298
rhand -28.1 -13.9437
rfingers 7.12502
rthumb -1.48245 -43.9183
lclavicle 1.80397e-014 -3.81667e-014
lhumerus -33.4868 -11.8064 -0.310568
lradius 20.3154
lwrist -5.2847
lhand -26.6762 24.4606
lfingers 7.12502
lthumb -0.10739 54.4403
rfemur -37.0801 -199.132 1.85448
rtibia 40.2645
rfoot 14.4739 -51.0882
rtoes -0.928625
lfemur -11.0461 -4.77419 -4.87655
ltibia 42.1872
lfoot -4.96469 10.9928
ltoes -4.21664
336
root 11.0279 18.7059 -9.91343 540.44 -36.5596 176.665
lowerback 5.24591 1.76674 -10.5517
upperback 0.571189 1.45847 -2.94252
thorax -2.55837 0.731343 2.73367
lowerneck -19.0618 -3.74814 -16.9266
upperneck 19.0795 -6.34797 23.0642
head 10.6444 -2.04378 10.6369
rclavicle -1.32689e-014 -6.52014e-014
rhumerus -34.7328 -28.1823 5.02431
rradius 27.4626
rwrist 42.5768
rhand -28.4902 -15.0717
rfingers 7.12502
rthumb -1.85935 -45.0433
lclavicle -1.32689e-014 -6.52014e-014
lhumerus -34.186 -12.2715 0.103258
lradius 20.835
lwrist -4.48655
lhand -27.1413 25.1948
lfingers 7.12502
lthumb -0.556513 55.1738
rfemur -35.6182 -198.493 1.77116
rtibia 40.0957
rfoot 11.4399 -51.5665
rtoes 0.848005
lfemur -9.72211 -6.91679 -4.71023
ltibia 40.9159
lfoot -6.64503 13.2085
ltoes -4.5114
